- 
http://www.Speed.Cd 
       
http://www.Speed.Cd      fast  and The Hottest Private Tracker on the net

(((--Registration will be open on june every weekend--)))

Please Seed back to make the speed Faster!!!

------------------nfo--------------------------
-








































          
          
              
              
                    
                    
                    
                    

Medium.Raw.Night.Of.The.Wolf.2010.DVDRiP.XviD.AC3-SiC

Poster:
[img]http://leetleech.org/images/83782546000977944255.jpg[/img]

IMDB Link:
http://www.imdb.com/title/tt0886515/

Description:
Capturing the sadistic serial killer "The Wolf" was just the beginning for rookie cop Johnny Morgan. As he escorts the monster to his new home in the dark underground halls of Parker's Asylum, bedlam ensues and Johnny along with a handful of civilians become players in a night of survival against the world's most terrifying inmates.

General
Complete name                    : Medium.Raw.Night.Of.The.Wolf.2010.DVDRiP.XviD.AC3-SiC.avi
Format                           : AVI
Format/Info                      : Audio Video Interleave
File size                        : 1.67 GiB
Duration                         : 1h 50mn
Overall bit rate                 : 2 157 Kbps
Writing library                  : VirtualDub build 32842/release

Video
ID                               : 0
Format                           : MPEG-4 Visual
Format profile                   : Advanced Simple@L5
Format settings, BVOP            : 1
Format settings, QPel            : No
Format settings, GMC             : No warppoints
Format settings, Matrix          : Default (H.263)
Codec ID                         : XVID
Codec ID/Hint                    : XviD
Duration                         : 1h 50mn
Bit rate                         : 1 700 Kbps
Width                            : 720 pixels
Height                           : 400 pixels
Display aspect ratio             : 16:9
Frame rate                       : 23.976 fps
Color space                      : YUV
Chroma subsampling               : 4:2:0
Bit depth                        : 8 bits
Scan type                        : Progressive
Compression mode                 : Lossy
Bits/(Pixel*Frame)               : 0.246
Stream size                      : 1.32 GiB (79%)
Writing library                  : XviD 1.2.1 (UTC 2008-12-04)

Audio
ID                               : 1
Format                           : AC-3
Format/Info                      : Audio Coding 3
Mode extension                   : CM (complete main)
Codec ID                         : 2000
Duration                         : 1h 50mn
Bit rate mode                    : Constant
Bit rate                         : 448 Kbps
Channel(s)                       : 6 channels
Channel positions                : Front: L C R, Side: L R, LFE
Sampling rate                    : 48.0 KHz
Bit depth                        : 16 bits
Compression mode                 : Lossy
Delay relative to video          : 500ms
Stream size                      : 355 MiB (21%)
Alignment                        : Split accross interleaves
Interleave, duration             : 42 ms (1.00 video frame)
Interleave, preload duration     : 500 ms

Screenshots:
[img]http://leetleech.org/images/87883612209778274312.png[/img]
[img]http://leetleech.org/images/02117013102797276379.png[/img]
[img]http://leetleech.org/images/08360308300264839227.png[/img]
[img]http://leetleech.org/images/06387609348046469606.png[/img]
[img]http://leetleech.org/images/99365184913353591858.png[/img]

Note: This appears to be some sort of horror movie, made for Canadian television. Gotten good reviews, from what I've seen. Straight rip from NTSC retail DVD. 

Source: Our Own

Encoder: thefuzz


Respects to CaptainHomey, Cyanide, CM8, Rx, THC, ELEKTRI4KA, Killerhz, XtremE, PA, YeFsTe and everyone in the struggle...